# xmcd
#
# Track frame offsets:
# 150
# 15942
# 31460
# 59027
#
# Disc length: 1171 seconds
#
#
# Revision: 0
# Processed by: cddbd v1.5.1PL0 Copyright (c) Steve Scherf et al.
# Submitted via: FreeRIP 2.942 
#
DISCID=2b049104
DTITLE=D-Code - Not Over Yet
DYEAR=2005
DGENRE=Dance
TTITLE0=Not Over Yet (Single Mix)
TTITLE1=Not Over Yet (Jules and Raoul Edit)
TTITLE2=Not Over Yet (Yellah Remix)
TTITLE3=Not Over Yet (DJ KB's XL Cut)
EXTD=http://popartiesten-dance.pagina.nl
EXTT0=
EXTT1=
EXTT2=
EXTT3=
PLAYORDER=
